<svg width="36" height="37" viewBox="0 0 36 37" fill="none" xmlns="http://www.w3.org/2000/svg">
<path d="M11.7045 9.11987C12.588 9.11987 13.383 9.19637 14.112 9.35237C14.8365 9.50687 15.4545 9.76187 15.9765 10.1144C16.491 10.4669 16.893 10.9349 17.1825 11.5229C17.463 12.1034 17.6025 12.8294 17.6025 13.6874C17.6025 14.6174 17.3925 15.3944 16.971 16.0139C16.5465 16.6349 15.921 17.1434 15.087 17.5364C16.2225 17.8649 17.064 18.4394 17.622 19.2554C18.183 20.0789 18.4575 21.0644 18.4575 22.2194C18.4575 23.1569 18.279 23.9624 17.9205 24.6389C17.575 25.3053 17.0738 25.8785 16.4595 26.3099C15.8232 26.753 15.1124 27.0782 14.361 27.2699C13.5732 27.4767 12.762 27.5805 11.9475 27.5789H3V9.11987H11.7045ZM11.178 16.5779C11.898 16.5779 12.495 16.4069 12.966 16.0604C13.434 15.7184 13.6605 15.1544 13.6605 14.3819C13.6605 13.9529 13.584 13.5989 13.434 13.3214C13.2879 13.0544 13.0716 12.8324 12.8085 12.6794C12.5331 12.5161 12.2292 12.4066 11.913 12.3569C11.5683 12.2926 11.2181 12.2619 10.8675 12.2654H7.065V16.5779H11.178ZM11.4045 24.4364C11.805 24.4364 12.186 24.4019 12.5445 24.3209C12.906 24.2429 13.227 24.1169 13.5 23.9294C13.773 23.7494 13.998 23.5049 14.16 23.1929C14.3235 22.8839 14.403 22.4804 14.403 21.9959C14.403 21.0449 14.1345 20.3684 13.6035 19.9589C13.071 19.5539 12.357 19.3529 11.4825 19.3529H7.065V24.4379H11.4045V24.4364ZM24.252 24.3749C24.8025 24.9119 25.596 25.1819 26.628 25.1819C27.3675 25.1819 28.0065 24.9944 28.545 24.6224C29.076 24.2489 29.4 23.8499 29.5245 23.4374H32.757C32.238 25.0454 31.4505 26.1944 30.3735 26.8859C29.31 27.5804 28.0155 27.9254 26.5035 27.9254C25.4505 27.9254 24.5025 27.7559 23.6535 27.4199C22.8386 27.1025 22.1022 26.6123 21.495 25.9829C20.8978 25.3388 20.4362 24.5813 20.1375 23.7554C19.8092 22.842 19.6466 21.8774 19.6575 20.9069C19.6575 19.9079 19.824 18.9734 20.151 18.1109C20.4614 17.2771 20.9381 16.5152 21.552 15.8714C22.1595 15.2414 22.8795 14.7449 23.718 14.3804C24.5997 14.0095 25.5485 13.8247 26.505 13.8374C27.636 13.8374 28.6245 14.0564 29.4735 14.4974C30.2968 14.9183 31.0107 15.5254 31.5585 16.2704C32.103 17.0099 32.4915 17.8574 32.733 18.8069C32.9745 19.7549 33.0585 20.7449 32.9895 21.7814H23.343C23.3445 22.8374 23.7 23.8379 24.252 24.3749ZM28.47 17.3534C28.0335 16.8704 27.2955 16.6094 26.3925 16.6094C25.806 16.6094 25.3215 16.7069 24.9315 16.9079C24.5749 17.088 24.2585 17.3385 24.0015 17.6444C23.7758 17.9221 23.6084 18.2425 23.5095 18.5864C23.423 18.8731 23.3672 19.1683 23.343 19.4669H29.316C29.229 18.5309 28.908 17.8394 28.47 17.3534ZM22.593 10.3589H30.0765V12.1814H22.593V10.3589Z" fill="black"/>
</svg>
