<svg width="36" height="37" viewBox="0 0 36 37" fill="none" xmlns="http://www.w3.org/2000/svg">
<path d="M14.3895 16.9799C13.5765 16.9799 12.936 17.6924 12.936 18.5624C12.936 19.4294 13.5915 20.1449 14.3895 20.1449C15.201 20.1449 15.8415 19.4294 15.8415 18.5624C15.858 17.6909 15.201 16.9799 14.3895 16.9799ZM19.5915 16.9799C18.7785 16.9799 18.138 17.6924 18.138 18.5624C18.138 19.4294 18.7935 20.1449 19.5915 20.1449C20.403 20.1449 21.0435 19.4294 21.0435 18.5624C21.042 17.6909 20.403 16.9799 19.5915 16.9799Z" fill="black"/>
<path d="M26.517 5.02344H7.42051C7.036 5.02442 6.65545 5.10113 6.30058 5.24919C5.94572 5.39724 5.62349 5.61374 5.35229 5.88633C5.0811 6.15892 4.86625 6.48225 4.72002 6.83787C4.57378 7.19349 4.49902 7.57443 4.50001 7.95894V27.2249C4.50001 28.8494 5.81101 30.1604 7.42051 30.1604H23.58L22.8225 27.5219L24.648 29.2184L26.3715 30.8144L29.4375 33.5234V7.95894C29.4385 7.57443 29.3637 7.19349 29.2175 6.83787C29.0713 6.48225 28.8564 6.15892 28.5852 5.88633C28.314 5.61374 27.9918 5.39724 27.6369 5.24919C27.2821 5.10113 26.9015 5.02442 26.517 5.02344ZM21.015 23.6339C21.015 23.6339 20.502 23.0219 20.076 22.4774C21.942 21.9494 22.6545 20.7824 22.6545 20.7824C22.0695 21.1664 21.5145 21.4394 21.015 21.6254C19.1965 22.3865 17.194 22.5942 15.258 22.2224C14.5427 22.0819 13.8417 21.8761 13.164 21.6074C12.8066 21.4717 12.4592 21.3108 12.1245 21.1259C12.081 21.0944 12.039 21.0824 11.997 21.0539C11.9745 21.0433 11.9546 21.0279 11.9385 21.0089C11.682 20.8679 11.5395 20.7689 11.5395 20.7689C11.5395 20.7689 12.2235 21.9089 14.034 22.4504C13.6065 22.9904 13.0785 23.6339 13.0785 23.6339C9.93001 23.5334 8.73451 21.4679 8.73451 21.4679C8.73451 16.8794 10.7865 13.1609 10.7865 13.1609C12.8385 11.6204 14.79 11.6639 14.79 11.6639L14.9325 11.8349C12.3675 12.5774 11.184 13.7024 11.184 13.7024C11.184 13.7024 11.499 13.5314 12.0255 13.2899C13.5495 12.6209 14.76 12.4349 15.2595 12.3914C15.345 12.3779 15.417 12.3629 15.5025 12.3629C17.9733 12.03 20.4857 12.4995 22.6695 13.7024C22.6695 13.7024 21.543 12.6344 19.1205 11.8934L19.32 11.6654C19.32 11.6654 21.273 11.6219 23.3235 13.1624C23.3235 13.1624 25.3755 16.8809 25.3755 21.4694C25.3755 21.4694 24.165 23.5334 21.015 23.6339Z" fill="black"/>
</svg>
