<svg width="36" height="37" viewBox="0 0 36 37" fill="none" xmlns="http://www.w3.org/2000/svg">
<path d="M30.99 10.9934C29.6811 8.72503 27.7973 6.84175 25.5285 5.53344C23.229 4.19394 20.7195 3.52344 18 3.52344C15.2805 3.52344 12.771 4.19394 10.47 5.53344C8.1705 6.87294 6.3495 8.69394 5.01 10.9934C3.6705 13.2929 3 15.8039 3 18.5234C3 21.2429 3.669 23.7539 5.01 26.0534C6.31848 28.3222 8.20238 30.2056 10.4715 31.5134C12.771 32.8529 15.2805 33.5234 18 33.5234C20.7195 33.5234 23.229 32.8529 25.53 31.5134C27.7988 30.2051 29.6826 28.3218 30.9915 26.0534C32.331 23.7539 33 21.2429 33 18.5234C33 15.8039 32.331 13.2929 30.99 10.9934ZM18 6.01344C21 6.01344 23.658 6.97344 25.98 8.89194C24.6 10.6529 22.551 12.1019 19.83 13.2419C18.327 10.5224 16.698 8.25144 14.9385 6.43194C15.9357 6.15621 16.9654 6.01546 18 6.01344ZM8.265 10.7234C9.36186 9.33058 10.7497 8.19409 12.3315 7.39344C14.1495 9.19494 15.819 11.4434 17.3415 14.1434C14.3415 15.0434 11.1705 15.4934 7.83 15.4934C6.9705 15.4934 6.321 15.4739 5.88 15.4334C6.33971 13.715 7.15192 12.111 8.265 10.7234ZM5.49 18.5234C5.49 18.4424 5.4945 18.3434 5.505 18.2234C5.5155 18.1034 5.52 18.0044 5.52 17.9234C5.901 17.9444 6.4815 17.9534 7.2615 17.9534C11.2605 17.9534 14.9805 17.4029 18.42 16.3034C18.7005 16.8629 18.9915 17.4929 19.29 18.1934C17.31 18.6329 15.279 19.7024 13.1985 21.4034C11.118 23.1044 9.6 24.8939 8.64 26.7734C6.54 24.3929 5.49 21.6434 5.49 18.5234ZM18 31.0334C15.159 31.0334 12.609 30.1529 10.3485 28.3949C11.25 26.6144 12.6345 24.9119 14.505 23.2934C16.374 21.6734 18.2295 20.6639 20.07 20.2634C21.231 23.4719 22.0162 26.8042 22.41 30.1934C21.0043 30.7427 19.5092 31.0275 18 31.0334ZM28.62 25.0934C27.6382 26.6752 26.3161 28.0183 24.75 29.0249C24.39 25.9049 23.7 22.8644 22.6815 19.9034C24.0795 19.8044 25.329 19.7534 26.4315 19.7534C27.63 19.7534 28.9605 19.8044 30.42 19.9034C30.2242 21.7482 29.6084 23.5236 28.62 25.0934ZM26.76 17.5934C25.02 17.5934 23.4105 17.6639 21.93 17.8034C21.6164 16.9826 21.2762 16.1722 20.91 15.3734C24.009 14.0144 26.208 12.3644 27.5085 10.4234C29.3085 12.5444 30.2895 14.9639 30.4485 17.6834C29.2305 17.6234 28.0005 17.5934 26.76 17.5934Z" fill="black"/>
</svg>
