<svg width="36" height="37" viewBox="0 0 36 37" fill="none" xmlns="http://www.w3.org/2000/svg">
<path d="M30 5.02344H6C5.60218 5.02344 5.22064 5.18147 4.93934 5.46278C4.65804 5.74408 4.5 6.12561 4.5 6.52344V30.5234C4.5 30.9213 4.65804 31.3028 4.93934 31.5841C5.22064 31.8654 5.60218 32.0234 6 32.0234H18.9225V21.5834H15.4155V17.4959H18.9225V14.4959C18.9225 11.0084 21.0525 9.10794 24.1725 9.10794C25.221 9.10494 26.271 9.15894 27.315 9.26844V12.8984H25.1625C23.4705 12.8984 23.1405 13.7054 23.1405 14.8859V17.4884H27.186L26.661 21.5759H23.139V32.0234H30C30.3978 32.0234 30.7794 31.8654 31.0607 31.5841C31.342 31.3028 31.5 30.9213 31.5 30.5234V6.52344C31.5 6.12561 31.342 5.74408 31.0607 5.46278C30.7794 5.18147 30.3978 5.02344 30 5.02344Z" fill="black"/>
</svg>
