<svg width="36" height="37" viewBox="0 0 36 37" fill="none" xmlns="http://www.w3.org/2000/svg">
<path d="M17.9984 11.589C16.1589 11.589 14.3947 12.3198 13.0939 13.6205C11.7932 14.9213 11.0624 16.6855 11.0624 18.525C11.0624 20.3645 11.7932 22.1287 13.0939 23.4295C14.3947 24.7302 16.1589 25.461 17.9984 25.461C19.838 25.461 21.6022 24.7302 22.9029 23.4295C24.2037 22.1287 24.9344 20.3645 24.9344 18.525C24.9344 16.6855 24.2037 14.9213 22.9029 13.6205C21.6022 12.3198 19.838 11.589 17.9984 11.589ZM17.9984 23.0295C16.8034 23.0295 15.6572 22.5548 14.8122 21.7097C13.9672 20.8647 13.4924 19.7186 13.4924 18.5235C13.4924 17.3284 13.9672 16.1823 14.8122 15.3373C15.6572 14.4922 16.8034 14.0175 17.9984 14.0175C19.1935 14.0175 20.3396 14.4922 21.1847 15.3373C22.0297 16.1823 22.5044 17.3284 22.5044 18.5235C22.5044 19.7186 22.0297 20.8647 21.1847 21.7097C20.3396 22.5548 19.1935 23.0295 17.9984 23.0295Z" fill="black"/>
<path d="M25.2089 12.951C26.102 12.951 26.8259 12.227 26.8259 11.334C26.8259 10.441 26.102 9.71701 25.2089 9.71701C24.3159 9.71701 23.5919 10.441 23.5919 11.334C23.5919 12.227 24.3159 12.951 25.2089 12.951Z" fill="black"/>
<path d="M30.7994 9.69001C30.4522 8.79328 29.9215 7.97893 29.2414 7.29909C28.5613 6.61926 27.7468 6.08891 26.8499 5.74201C25.8004 5.34804 24.6917 5.13502 23.5709 5.11201C22.1264 5.04901 21.6689 5.03101 18.0059 5.03101C14.3429 5.03101 13.8734 5.03101 12.4409 5.11201C11.321 5.13384 10.2131 5.34691 9.16493 5.74201C8.26783 6.08851 7.45308 6.61871 6.77293 7.2986C6.09279 7.97849 5.56227 8.79304 5.21543 9.69001C4.82139 10.7394 4.60885 11.8483 4.58693 12.969C4.52243 14.412 4.50293 14.8695 4.50293 18.534C4.50293 22.197 4.50293 22.6635 4.58693 24.099C4.60943 25.221 4.82093 26.328 5.21543 27.3795C5.56325 28.2761 6.09427 29.0904 6.77458 29.7702C7.45489 30.45 8.26953 30.9804 9.16643 31.3275C10.2126 31.7373 11.321 31.9656 12.4439 32.0025C13.8884 32.0655 14.3459 32.085 18.0089 32.085C21.6719 32.085 22.1414 32.085 23.5739 32.0025C24.6946 31.9797 25.8033 31.7672 26.8529 31.374C27.7496 31.0263 28.5639 30.4955 29.2439 29.8155C29.9239 29.1354 30.4547 28.3211 30.8024 27.4245C31.1969 26.3745 31.4084 25.2675 31.4309 24.1455C31.4954 22.7025 31.5149 22.245 31.5149 18.5805C31.5149 14.916 31.5149 14.451 31.4309 13.0155C31.4135 11.8789 31.1998 10.7539 30.7994 9.69001ZM28.9724 23.988C28.9628 24.8525 28.805 25.7089 28.5059 26.52C28.2807 27.1033 27.9358 27.633 27.4935 28.075C27.0513 28.517 26.5214 28.8616 25.9379 29.0865C25.1358 29.3842 24.2885 29.542 23.4329 29.553C22.0079 29.619 21.6059 29.6355 17.9519 29.6355C14.2949 29.6355 13.9214 29.6355 12.4694 29.553C11.6143 29.5425 10.7674 29.3847 9.96593 29.0865C9.38046 28.863 8.84843 28.519 8.40426 28.0769C7.9601 27.6348 7.61368 27.1044 7.38743 26.52C7.0926 25.7176 6.9349 24.8713 6.92093 24.0165C6.85643 22.5915 6.84143 22.1895 6.84143 18.5355C6.84143 14.88 6.84143 14.5065 6.92093 13.053C6.93063 12.189 7.08841 11.3331 7.38743 10.5225C7.84493 9.33901 8.78243 8.40751 9.96593 7.95451C10.7678 7.65772 11.6145 7.49995 12.4694 7.48801C13.8959 7.42351 14.2964 7.40551 17.9519 7.40551C21.6074 7.40551 21.9824 7.40551 23.4329 7.48801C24.2885 7.4983 25.136 7.65611 25.9379 7.95451C26.5213 8.17992 27.0511 8.52481 27.4934 8.96705C27.9356 9.40929 28.2805 9.93911 28.5059 10.5225C28.8008 11.3249 28.9585 12.1712 28.9724 13.026C29.0369 14.4525 29.0534 14.853 29.0534 18.5085C29.0534 22.1625 29.0534 22.5555 28.9889 23.9895H28.9724V23.988Z" fill="black"/>
</svg>
